# xmcd
#
# Track frame offsets:
#	225
#	14240
#	28239
#	39320
#	51097
#	64583
#	77528
#	88043
#	97911
#	107130
#	119834
#	133791
#	144338
#	156087
#	171033
#	184897
#	197657
#	206442
#	218954
#	232056
#	243474
#	256185
#	268339
#	280759
#	290367
#	302091
#	314232
#	327788
#	338808
#
# Disc length: 4700 seconds
#
# Revision: 1
# Processed by: cddbd v1.5.2PL0 Copyright (c) Steve Scherf et al.
# Submitted via: audiograbber 1.83.01
#
DISCID=b812591d
DTITLE=Various Artist - 78 RPM R&B Vocal Groups - vol. 2
DYEAR=1900
DGENRE=Vocal Harmony
TTITLE0=Jones Boys Sing Band - Sleepy Time in Hawaii (Test pressing, 1937)
TTITLE1=Fats Waller and the Deep River Boys - By the Light of the Silvery Moon (B
TTITLE1=luebird, 1942)
TTITLE2=Celestine Stewart and the Charmers - Waitin' for the Train to Come In (Hu
TTITLE2=b, 1946)
TTITLE3=Caldwells - I Gotta Move (RCA, 1947)
TTITLE4=Paul Breckenridge and the Four Heaveny Knights - Rock-a My Soul (King, 19
TTITLE4=47)
TTITLE5=Bill Johnson and his Musical Notes - All Dressed Up With a Broken Heart (
TTITLE5=RCA, 1948)
TTITLE6=Bill Johnson and his Musical Notes - Say Something Nice About Me (RCA, 19
TTITLE6=48)
TTITLE7=King Odom Quartet - I'm Looking Over a Four Leaf Clover (Musicraft, 194
TTITLE7=8)
TTITLE8=Dixie-Aires - Playing With Fire (Exclusive, 1949)
TTITLE9=Ebonaires - Song of the Wanderer (Modern, 1949)
TTITLE10=Four Jacks - I Challenge Your Kiss (Allen, 1949)
TTITLE11=Melody Echoes - I will to Know (Regal, 1950)
TTITLE12=Jubilators - Seek and Ye Shall Find (Regal, 1950)
TTITLE13=Ravens - I'm So Crazy for Love (Columbia, 1950)
TTITLE14=Paul Breckenridge and Choir - Journey's End (RCA, 1950)
TTITLE15=Shadows - Don't Blame My Dreams (Lee, 1950)
TTITLE16=Four Tunes - Do I Worry (RCA, 1950)
TTITLE17=Jesse Belvin with the Three Dots and a Dash - All That Wine is Gone (I
TTITLE17=mperial, 1951)
TTITLE18=Herb Kenny and the Comets - Only You (Federal, 1952)
TTITLE19=Chris Powell and the Five Blue Flames - Blue Boy (OKeh, 1952)
TTITLE20=Austin Powell and the James Quintet - Wrong Again (Atlantic, 1952)
TTITLE21=Southernaires - Baby What You're Doing to Me (Rudder, ca. 1953)
TTITLE22=Jimmy Witherspoon (& the Lamplighters) - Sad Life (Federal, 1953)
TTITLE23=Embers - Paradise Hill (Herald, 1953)
TTITLE24=Billy Williams Quartet - Sh-Boom (Life Could Be a Dream) (Coral, 1954)
TTITLE25=Jimmy Sweeney and the Varieteers - I Pay With Every Breath (Hickory, 195
TTITLE25=4)
TTITLE26=Counts - My Dear, My Darling (Dot, 1954)
TTITLE27=Penguins - Love Will Make Your Mind Go Wild (DooTone, 1954)
TTITLE28=Feathers - I Need a Girl (Aladdin, 1955)
EXTD=
EXTT0=
EXTT1=
EXTT2=
EXTT3=
EXTT4=
EXTT5=
EXTT6=
EXTT7=
EXTT8=
EXTT9=
EXTT10=
EXTT11=
EXTT12=
EXTT13=
EXTT14=
EXTT15=
EXTT16=
EXTT17=
EXTT18=
EXTT19=
EXTT20=
EXTT21=
EXTT22=
EXTT23=
EXTT24=
EXTT25=
EXTT26=
EXTT27=
EXTT28=
PLAYORDER=
